<?xml version="1.0" encoding="utf-8"?>
<svg version="1.1" xmlns="http://www.w3.org/2000/svg" xmlns:xlink="http://www.w3.org/1999/xlink" x="0px" y="0px"
	 viewBox="0 0 50 50" style="enable-background:new 0 0 50 50;" xml:space="preserve">
<circle cx="25" cy="25" r="25" fill="white"/>
<g transform="translate(4.6, 12.45)">
<path d="M25,18.7h-1.5c0-3.1,0-4.9,0-5.5c0-2-0.8-4-2.5-5c-1.4-0.8-3.1-0.9-4.6-0.6c-2.9,0.6-4,3.1-4.1,5.9c0,0.1,0,0.9,0,2.4
	c0,0.8,0,1.4,0.2,1.7c0.1,0.5,0.4,0.9,0.7,1.2c-3.4,0-5.4,0-5.9,0c-2.9,0-3.4-4-0.6-4.8c0.2-0.1,0.7-0.1,1.3,0c0,0,0.1,0,0.1-0.1
	v-1.2c0,0,0,0,0,0c-1-0.1-1.9,0-2.7,0.5c-1.6,0.9-2.4,2.8-1.8,4.6c0.4,1.1,1.2,1.8,2.3,2.3c0.4,0.2,1.1,0.3,2.1,0.2c1.9,0,4.6,0,8,0
	c0,0,0,0,0,0c0.2,0,0.5,0,0.7-0.1c1-0.2,2-1,2.4-1.8c0.7-1.4,0.5-2.7-0.5-4c-0.1-0.1-0.2-0.1-0.3,0L17.4,15c-0.1,0.1-0.1,0.2,0,0.3
	c1,1,0.5,2.8-0.8,3.3c-1.1,0.5-2.3-0.1-2.7-1.2c-0.1-0.2-0.1-0.7-0.1-1.4c0-2.8-0.3-6.6,3.2-7.2c1-0.2,1.9-0.1,2.7,0.2
	c1.2,0.5,2.1,1.7,2.3,3.1c0,0.2,0.1,0.5,0.1,0.8c0,0,0,0.1,0,0.1V20c0,0,0,0,0,0H23h0.4H25c0,0,0.1,0,0.1-0.1L25,18.7
	C25.1,18.7,25,18.7,25,18.7z"/>
<path d="M29.8,5.9c0.2,0,0.3,0,0.4,0c2.5-0.7,4.3-1.1,5.3-1.4c0,0,0.1,0,0.1,0.1c0.6,2.1,0.7,4.1,0.4,6.2c-0.5,3.4-2.4,6.4-6.2,6.4
	s-5.7-3-6.2-6.4c-0.3-2.1-0.2-4.2,0.4-6.2c0,0,0.1-0.1,0.1-0.1c1.1,0.3,2.8,0.7,5.3,1.4C29.6,5.9,29.7,5.9,29.8,5.9 M29.8,15.8
	c2.7,0,4.1-2.2,4.6-4.5c0.4-1.7,0.4-3.4,0-5.1c0-0.1-0.1-0.1-0.1-0.1c-1.2,0.3-2.5,0.7-4,1.1c-0.1,0-0.3,0.1-0.5,0.1
	c-0.2,0-0.3,0-0.5-0.1c-1.5-0.4-2.8-0.7-4-1.1c-0.1,0-0.1,0-0.1,0.1c-0.3,1.7-0.3,3.4,0,5.1C25.7,13.6,27.2,15.8,29.8,15.8
	L29.8,15.8z"/>
</g>
</svg>
